<?xml version="1.0" encoding="UTF-8"?> <svg xmlns="http://www.w3.org/2000/svg" width="40" height="40" viewBox="0 0 40 40" fill="none"><path d="M28.4102 40H11.5898C5.17691 40 0 34.8052 0 28.4102V11.5898C0 5.17689 5.19482 0 11.5898 0H28.4102C34.8231 0 40 5.1948 40 11.5898V28.4102C40.0179 34.8052 34.8231 40 28.4102 40Z" fill="#1E1E1E"></path><path d="M4.49561 20.9942V18.97C4.49561 13.5065 8.92016 9.09985 14.3658 9.09985H25.6331C31.0787 9.09985 35.5032 13.5244 35.5032 18.97V20.9942C35.5032 26.4398 31.0787 30.8643 25.6331 30.8643H14.3658C8.92016 30.8822 4.49561 26.4577 4.49561 20.9942Z" fill="#D3FF1A"></path></svg> 